<svg id="svg" version="1.1" xmlns="http://www.w3.org/2000/svg" xmlns:xlink="http://www.w3.org/1999/xlink" width="400" height="400" viewBox="0, 0, 400,400"><g id="svgg"><path id="path0" d="M149.560 24.842 L 148.400 26.085 148.400 37.262 C 148.400 49.126,148.554 50.212,150.378 51.188 C 150.900 51.467,182.687 51.600,249.112 51.600 C 343.706 51.600,347.099 51.625,347.742 52.336 C 348.358 53.017,348.407 59.362,348.402 138.313 C 348.396 229.947,348.278 225.113,350.552 226.073 C 352.661 226.964,373.502 226.819,374.898 225.904 C 376.852 224.623,376.796 227.595,376.788 125.200 C 376.781 26.013,376.774 25.595,375.175 24.300 C 374.357 23.637,368.392 23.600,262.516 23.600 L 150.721 23.600 149.560 24.842 M374.400 25.592 C 375.242 26.124,375.322 223.638,374.480 224.480 C 373.724 225.236,351.476 225.236,350.720 224.480 C 350.298 224.058,350.162 207.719,350.000 137.600 C 349.838 67.482,349.702 51.142,349.280 50.720 C 348.857 50.297,330.272 50.163,249.892 50.000 L 151.024 49.800 150.508 48.800 C 149.702 47.238,149.968 26.116,150.800 25.591 C 151.616 25.076,373.585 25.076,374.400 25.592 M99.560 74.842 L 98.400 76.085 98.400 87.262 C 98.400 99.126,98.554 100.212,100.378 101.188 C 100.900 101.467,132.687 101.600,199.112 101.600 C 293.706 101.600,297.099 101.625,297.742 102.336 C 298.358 103.017,298.407 109.362,298.402 188.313 C 298.396 279.947,298.278 275.113,300.552 276.073 C 302.661 276.964,323.502 276.819,324.898 275.904 C 326.852 274.623,326.796 277.595,326.788 175.200 C 326.781 76.013,326.774 75.595,325.175 74.300 C 324.357 73.637,318.392 73.600,212.516 73.600 L 100.721 73.600 99.560 74.842 M324.400 75.592 C 325.242 76.124,325.322 273.638,324.480 274.480 C 323.724 275.236,301.476 275.236,300.720 274.480 C 300.298 274.058,300.162 257.719,300.000 187.600 C 299.838 117.482,299.702 101.142,299.280 100.720 C 298.857 100.297,280.272 100.163,199.892 100.000 L 101.024 99.800 100.508 98.800 C 99.702 97.238,99.968 76.116,100.800 75.591 C 101.616 75.076,323.585 75.076,324.400 75.592 M49.560 124.842 L 48.400 126.085 48.400 237.262 C 48.400 357.426,48.272 350.061,50.378 351.188 C 51.929 352.018,274.147 351.733,275.175 350.900 C 276.779 349.601,276.781 349.465,276.781 237.600 C 276.781 125.735,276.779 125.599,275.175 124.300 C 274.357 123.637,268.392 123.600,162.516 123.600 L 50.721 123.600 49.560 124.842 M274.400 125.592 C 275.268 126.140,275.319 348.293,274.451 349.339 C 273.603 350.360,51.597 350.360,50.749 349.339 C 49.881 348.293,49.932 126.140,50.800 125.592 C 51.174 125.355,93.204 125.212,162.600 125.212 C 231.996 125.212,274.026 125.355,274.400 125.592 M100.749 175.861 C 99.954 176.820,99.925 298.485,100.720 299.280 C 101.489 300.049,223.711 300.049,224.480 299.280 C 225.275 298.485,225.246 176.820,224.451 175.861 C 223.945 175.251,219.135 175.200,162.600 175.200 C 106.065 175.200,101.255 175.251,100.749 175.861 M222.755 177.346 C 223.627 178.397,223.568 297.028,222.695 297.573 C 221.464 298.341,103.168 298.368,102.400 297.600 C 101.619 296.819,101.662 178.289,102.444 177.347 C 103.122 176.531,222.077 176.529,222.755 177.346 " stroke="none" fill="#d4d4d4" fill-rule="evenodd"></path><path id="path1" d="M152.310 27.108 C 151.619 27.941,151.773 47.144,152.477 47.848 C 152.951 48.323,167.677 48.406,250.734 48.402 C 356.956 48.396,350.001 48.251,351.288 50.504 C 351.699 51.223,351.819 68.327,351.894 136.974 C 351.950 188.867,352.133 222.693,352.358 222.918 C 352.843 223.403,372.355 223.405,372.840 222.920 C 373.303 222.457,373.347 27.587,372.884 27.124 C 372.293 26.533,152.800 26.518,152.310 27.108 M102.310 77.108 C 101.619 77.941,101.773 97.144,102.477 97.848 C 102.951 98.323,117.677 98.406,200.734 98.402 C 306.956 98.396,300.001 98.251,301.288 100.504 C 301.699 101.223,301.819 118.327,301.894 186.974 C 301.950 238.867,302.133 272.693,302.358 272.918 C 302.843 273.403,322.355 273.405,322.840 272.920 C 323.303 272.457,323.347 77.587,322.884 77.124 C 322.293 76.533,102.800 76.518,102.310 77.108 M52.360 127.048 C 51.725 127.813,51.876 347.247,52.512 347.884 C 53.282 348.653,271.918 348.653,272.688 347.884 C 273.288 347.283,273.482 127.722,272.883 127.123 C 272.347 126.587,52.805 126.512,52.360 127.048 M224.842 174.022 C 226.873 175.110,226.800 172.738,226.800 237.538 C 226.800 302.585,226.878 300.088,224.808 301.196 C 223.704 301.787,101.494 301.786,100.390 301.195 C 98.301 300.077,98.400 303.252,98.400 237.382 C 98.400 168.792,98.147 174.503,101.225 173.705 C 103.189 173.197,223.877 173.506,224.842 174.022 " stroke="none" fill="#424242" fill-rule="evenodd"></path><path id="path2" d="M150.800 25.591 C 149.968 26.116,149.702 47.238,150.508 48.800 L 151.024 49.800 249.892 50.000 C 330.272 50.163,348.857 50.297,349.280 50.720 C 349.702 51.142,349.838 67.482,350.000 137.600 C 350.162 207.719,350.298 224.058,350.720 224.480 C 351.476 225.236,373.724 225.236,374.480 224.480 C 375.322 223.638,375.242 26.124,374.400 25.592 C 373.585 25.076,151.616 25.076,150.800 25.591 M372.884 27.124 C 373.347 27.587,373.303 222.457,372.840 222.920 C 372.355 223.405,352.843 223.403,352.358 222.918 C 352.133 222.693,351.950 188.867,351.894 136.974 C 351.819 68.327,351.699 51.223,351.288 50.504 C 350.001 48.251,356.956 48.396,250.734 48.402 C 167.677 48.406,152.951 48.323,152.477 47.848 C 151.773 47.144,151.619 27.941,152.310 27.108 C 152.800 26.518,372.293 26.533,372.884 27.124 M100.800 75.591 C 99.968 76.116,99.702 97.238,100.508 98.800 L 101.024 99.800 199.892 100.000 C 280.272 100.163,298.857 100.297,299.280 100.720 C 299.702 101.142,299.838 117.482,300.000 187.600 C 300.162 257.719,300.298 274.058,300.720 274.480 C 301.476 275.236,323.724 275.236,324.480 274.480 C 325.322 273.638,325.242 76.124,324.400 75.592 C 323.585 75.076,101.616 75.076,100.800 75.591 M322.884 77.124 C 323.347 77.587,323.303 272.457,322.840 272.920 C 322.355 273.405,302.843 273.403,302.358 272.918 C 302.133 272.693,301.950 238.867,301.894 186.974 C 301.819 118.327,301.699 101.223,301.288 100.504 C 300.001 98.251,306.956 98.396,200.734 98.402 C 117.677 98.406,102.951 98.323,102.477 97.848 C 101.773 97.144,101.619 77.941,102.310 77.108 C 102.800 76.518,322.293 76.533,322.884 77.124 M50.800 125.592 C 49.932 126.140,49.881 348.293,50.749 349.339 C 51.597 350.360,273.603 350.360,274.451 349.339 C 275.319 348.293,275.268 126.140,274.400 125.592 C 274.026 125.355,231.996 125.212,162.600 125.212 C 93.204 125.212,51.174 125.355,50.800 125.592 M272.883 127.123 C 273.482 127.722,273.288 347.283,272.688 347.884 C 271.918 348.653,53.282 348.653,52.512 347.884 C 51.876 347.247,51.725 127.813,52.360 127.048 C 52.805 126.512,272.347 126.587,272.883 127.123 M101.225 173.705 C 98.147 174.503,98.400 168.792,98.400 237.382 C 98.400 303.252,98.301 300.077,100.390 301.195 C 101.494 301.786,223.704 301.787,224.808 301.196 C 226.878 300.088,226.800 302.585,226.800 237.538 C 226.800 172.738,226.873 175.110,224.842 174.022 C 223.877 173.506,103.189 173.197,101.225 173.705 M224.451 175.861 C 225.246 176.820,225.275 298.485,224.480 299.280 C 223.711 300.049,101.489 300.049,100.720 299.280 C 99.925 298.485,99.954 176.820,100.749 175.861 C 101.255 175.251,106.065 175.200,162.600 175.200 C 219.135 175.200,223.945 175.251,224.451 175.861 " stroke="none" fill="#646464" fill-rule="evenodd"></path><path id="path3" d="M122.588 23.600 C 122.588 36.690,122.638 42.045,122.700 35.500 C 122.761 28.955,122.761 18.245,122.700 11.700 C 122.638 5.155,122.588 10.510,122.588 23.600 M150.600 22.684 C 150.160 22.791,149.305 23.344,148.700 23.914 L 147.600 24.950 147.600 37.600 L 147.600 50.250 148.826 51.425 L 150.053 52.600 248.726 52.695 L 347.400 52.790 347.600 139.172 L 347.800 225.554 348.790 226.477 C 349.774 227.395,349.852 227.401,362.314 227.516 L 374.848 227.632 376.224 226.256 L 377.600 224.880 377.600 125.046 L 377.600 25.213 376.433 23.906 L 375.266 22.600 263.333 22.545 C 201.770 22.515,151.040 22.577,150.600 22.684 M375.175 24.300 C 376.774 25.595,376.781 26.013,376.788 125.200 C 376.796 227.595,376.852 224.623,374.898 225.904 C 373.502 226.819,352.661 226.964,350.552 226.073 C 348.278 225.113,348.396 229.947,348.402 138.313 C 348.407 59.362,348.358 53.017,347.742 52.336 C 347.099 51.625,343.706 51.600,249.112 51.600 C 182.687 51.600,150.900 51.467,150.378 51.188 C 148.554 50.212,148.400 49.126,148.400 37.262 L 148.400 26.085 149.560 24.842 L 150.721 23.600 262.516 23.600 C 368.392 23.600,374.357 23.637,375.175 24.300 M72.587 75.200 C 72.587 87.410,72.638 92.405,72.700 86.300 C 72.762 80.195,72.762 70.205,72.700 64.100 C 72.638 57.995,72.587 62.990,72.587 75.200 M100.600 72.684 C 100.160 72.791,99.305 73.344,98.700 73.914 L 97.600 74.950 97.600 87.600 L 97.600 100.250 98.826 101.425 L 100.053 102.600 198.726 102.695 L 297.400 102.790 297.600 189.172 L 297.800 275.554 298.790 276.477 C 299.774 277.395,299.852 277.401,312.314 277.516 L 324.848 277.632 326.224 276.256 L 327.600 274.880 327.600 175.046 L 327.600 75.213 326.433 73.906 L 325.266 72.600 213.333 72.545 C 151.770 72.515,101.040 72.577,100.600 72.684 M325.175 74.300 C 326.774 75.595,326.781 76.013,326.788 175.200 C 326.796 277.595,326.852 274.623,324.898 275.904 C 323.502 276.819,302.661 276.964,300.552 276.073 C 298.278 275.113,298.396 279.947,298.402 188.313 C 298.407 109.362,298.358 103.017,297.742 102.336 C 297.099 101.625,293.706 101.600,199.112 101.600 C 132.687 101.600,100.900 101.467,100.378 101.188 C 98.554 100.212,98.400 99.126,98.400 87.262 L 98.400 76.085 99.560 74.842 L 100.721 73.600 212.516 73.600 C 318.392 73.600,324.357 73.637,325.175 74.300 M22.598 237.600 C 22.598 311.630,22.644 341.915,22.700 304.900 C 22.756 267.885,22.756 207.315,22.700 170.300 C 22.644 133.285,22.598 163.570,22.598 237.600 M50.600 122.684 C 50.160 122.791,49.305 123.344,48.700 123.914 L 47.600 124.950 47.600 237.600 L 47.600 350.250 48.826 351.425 L 50.053 352.600 162.659 352.600 L 275.266 352.600 276.433 351.294 L 277.600 349.987 277.600 237.600 L 277.600 125.213 276.433 123.906 L 275.266 122.600 163.333 122.545 C 101.770 122.515,51.040 122.577,50.600 122.684 M275.175 124.300 C 276.779 125.599,276.781 125.735,276.781 237.600 C 276.781 349.465,276.779 349.601,275.175 350.900 C 274.147 351.733,51.929 352.018,50.378 351.188 C 48.272 350.061,48.400 357.426,48.400 237.262 L 48.400 126.085 49.560 124.842 L 50.721 123.600 162.516 123.600 C 268.392 123.600,274.357 123.637,275.175 124.300 M102.444 177.347 C 101.662 178.289,101.619 296.819,102.400 297.600 C 103.168 298.368,221.464 298.341,222.695 297.573 C 223.568 297.028,223.627 178.397,222.755 177.346 C 222.077 176.529,103.122 176.531,102.444 177.347 M222.200 237.597 L 222.200 297.205 162.600 297.205 L 103.000 297.205 102.899 237.503 L 102.797 177.800 162.499 177.895 L 222.200 177.989 222.200 237.597 M104.800 237.600 L 104.800 295.200 162.600 295.200 L 220.400 295.200 220.400 237.600 L 220.400 180.000 162.600 180.000 L 104.800 180.000 104.800 237.600 " stroke="none" fill="#ececec" fill-rule="evenodd"></path><path id="path4" d="M122.095 23.300 L 122.000 46.800 121.100 46.804 C 120.605 46.806,109.940 46.809,97.400 46.811 C 70.871 46.814,72.220 46.658,72.142 49.726 C 72.102 51.325,72.220 51.919,72.542 51.739 C 72.818 51.585,72.801 51.697,72.500 52.021 C 72.113 52.439,72.000 57.538,72.000 74.680 L 72.000 96.800 71.100 96.804 C 70.605 96.806,59.940 96.809,47.400 96.811 C 20.871 96.814,22.220 96.658,22.142 99.726 C 22.102 101.325,22.220 101.919,22.542 101.739 C 22.818 101.585,22.801 101.697,22.500 102.021 C 21.782 102.795,21.762 372.400,22.480 372.400 C 22.853 372.400,22.853 372.507,22.480 372.880 C 21.858 373.502,21.858 376.898,22.480 377.520 C 23.088 378.128,25.234 378.153,25.100 377.550 C 25.045 377.303,25.231 377.016,25.513 376.912 C 25.794 376.809,25.974 376.967,25.913 377.262 C 25.780 377.897,301.882 378.278,302.516 377.644 C 303.172 376.988,303.404 372.228,302.761 372.615 C 302.298 372.894,302.289 372.844,302.704 372.330 C 303.103 371.838,303.187 364.527,303.104 337.354 L 303.000 303.000 326.945 303.095 C 349.626 303.185,350.862 303.153,350.364 302.495 C 349.918 301.904,349.923 301.875,350.399 302.300 C 351.996 303.724,353.724 301.996,352.300 300.399 C 351.875 299.923,351.904 299.918,352.495 300.364 C 353.153 300.862,353.185 299.626,353.095 276.945 L 353.000 253.000 376.500 253.106 L 400.000 253.213 400.000 126.606 L 400.000 0.000 261.400 0.000 L 122.800 0.000 122.705 23.700 L 122.610 47.400 122.400 23.600 L 122.190 -0.200 122.095 23.300 M376.433 23.906 L 377.600 25.213 377.600 125.046 L 377.600 224.880 376.224 226.256 L 374.848 227.632 362.314 227.516 C 349.852 227.401,349.774 227.395,348.790 226.477 L 347.800 225.554 347.600 139.172 L 347.400 52.790 248.726 52.695 L 150.053 52.600 148.826 51.425 L 147.600 50.250 147.600 37.600 L 147.600 24.950 148.700 23.914 C 149.305 23.344,150.160 22.791,150.600 22.684 C 151.040 22.577,201.770 22.515,263.333 22.545 L 375.266 22.600 376.433 23.906 M72.700 86.300 C 72.638 92.405,72.587 87.410,72.587 75.200 C 72.587 62.990,72.638 57.995,72.700 64.100 C 72.762 70.205,72.762 80.195,72.700 86.300 M326.433 73.906 L 327.600 75.213 327.600 175.046 L 327.600 274.880 326.224 276.256 L 324.848 277.632 312.314 277.516 C 299.852 277.401,299.774 277.395,298.790 276.477 L 297.800 275.554 297.600 189.172 L 297.400 102.790 198.726 102.695 L 100.053 102.600 98.826 101.425 L 97.600 100.250 97.600 87.600 L 97.600 74.950 98.700 73.914 C 99.305 73.344,100.160 72.791,100.600 72.684 C 101.040 72.577,151.770 72.515,213.333 72.545 L 325.266 72.600 326.433 73.906 M22.700 304.900 C 22.644 341.915,22.598 311.630,22.598 237.600 C 22.598 163.570,22.644 133.285,22.700 170.300 C 22.756 207.315,22.756 267.885,22.700 304.900 M276.433 123.906 L 277.600 125.213 277.600 237.600 L 277.600 349.987 276.433 351.294 L 275.266 352.600 162.659 352.600 L 50.053 352.600 48.826 351.425 L 47.600 350.250 47.600 237.600 L 47.600 124.950 48.700 123.914 C 49.305 123.344,50.160 122.791,50.600 122.684 C 51.040 122.577,101.770 122.515,163.333 122.545 L 275.266 122.600 276.433 123.906 M102.899 237.503 L 103.000 297.205 162.600 297.205 L 222.200 297.205 222.200 237.597 L 222.200 177.989 162.499 177.895 L 102.797 177.800 102.899 237.503 M220.400 237.600 L 220.400 295.200 162.600 295.200 L 104.800 295.200 104.800 237.600 L 104.800 180.000 162.600 180.000 L 220.400 180.000 220.400 237.600 " stroke="none" fill="#f4f4f4" fill-rule="evenodd"></path></g></svg>